<?xml version="1.0"?>
<svg  xmlns="http://www.w3.org/2000/svg" xmlns:tgs="http://www.totalgrid.org" xmlns:xlink="http://www.w3.org/1999/xlink" style="background-color:black;" preserveAspectRatio="xMidYMid meet" viewBox="0 0 1200.0 400.0">
 <title>mv</title>
 <defs>
  <symbol id="quality_questionable">
   <title>Quality Questionable</title>
   <g id="svg_30">
    <path id="svg_31" d="m7.5,5c0,0 2.5,0 5,0c2.5,0 2.5,0 2.5,2.5c0,2.5 0,2.5 0,5c0,2.5 0,2.5 -2.5,2.5c-2.5,0 -2.5,0 -5,0c-2.5,0 -2.5,0 -2.5,-2.5c0,-2.5 0,-2.5 0,-5c0,-2.5 0,-2.5 2.5,-2.5z" stroke="#999999" fill="#FFFF00"/>
    <text id="svg_32" fill="#000000" stroke="#999999" stroke-width="0" stroke-dasharray="null" stroke-linejoin="null" stroke-linecap="null" x="10" y="14" font-size="10" font-family="serif" text-anchor="middle" font-weight="bold">?</text>
   </g>
  </symbol>
 </defs>
 <g>
  <title>modeling</title>
  <g id="svg_299">
   <path fill="none" stroke-dasharray="null" stroke-linejoin="null" stroke-linecap="null" d="m756,191.700012l16,0.099976l31.900024,-24" id="svg_11" stroke="#FFFFFF" stroke-width="2"/>
   <line fill="none" stroke-dasharray="null" stroke-linejoin="null" stroke-linecap="null" x1="803.999998" y1="191.999999" x2="819.999997" y2="191.999999" id="svg_10" stroke="#FFFFFF" stroke-width="2"/>
   <path id="svg_9" d="m791.199951,183.200012c0,0 4.800049,9.599976 4.800049,9.599976c0,0 4.800049,-9.599976 4.800049,-9.599976c0,0 -9.600098,0 -9.600098,0z" fill="#ffffff" stroke-width="2"/>
   <path fill="none" stroke-dasharray="null" stroke-linejoin="null" stroke-linecap="null" d="m772,168c16,0 24,6.080017 24,15.680008" id="svg_8" stroke="#FFFFFF" stroke-width="2"/>
  </g>
  <g id="svg_29" tgs:schematic-type="navigation-label" class="clickable" y="173" x="100" name="schematic:lv" tgs:uri="ModelNodeDetailPlace:?model_node_name=LV;tab=schematic">
   <text id="svg_33" y="173" x="100" class="default">GreenHub LV</text>
  </g>
  <text id="svg_34" text-anchor="middle" class="symbol-label" y="345" x="1150"/>
  <text id="svg_35" text-anchor="middle" class="symbol-label" y="140.5" x="262.5">T3</text>
  <text id="svg_36" text-anchor="middle" class="symbol-label" y="157.5" x="412.5">CB MV</text>
  <text id="svg_37" text-anchor="middle" class="symbol-label" y="87.5" x="537">MV BUS</text>
  <text id="svg_38" text-anchor="middle" class="symbol-label" y="91" x="663">SW1</text>
  <text id="svg_39" text-anchor="middle" class="symbol-label" y="290" x="663">SW2</text>
  <text id="svg_40" text-anchor="middle" class="symbol-label" y="86" x="788">TCE</text>
  <text fill="undefined" id="svg_41" text-anchor="middle" class="symbol-label" y="86" x="913">TCD</text>
  <text id="svg_42" text-anchor="middle" class="symbol-label" y="86" x="1038">TCC</text>
  <text id="svg_43" text-anchor="middle" class="symbol-label" y="285" x="850">TCA</text>
  <text id="svg_44" text-anchor="middle" class="symbol-label" y="285" x="975">TCB</text>
  <text id="svg_45" text-anchor="middle" class="symbol-label" y="159.5" x="200"/>
  <g id="svg_46" tgs:schematic-type="connection" class="connection">
   <line id="svg_47" y1="173" x2="337" class="voltage-7_2kV" x1="279.5" y2="173"/>
   <line id="svg_48" y1="173" x2="337" class="voltage-7_2kV" x1="337" y2="172.76"/>
   <line id="svg_49" y1="172.76" x2="394.5" class="voltage-7_2kV" x1="337" y2="172.76"/>
  </g>
  <g id="svg_50" tgs:schematic-type="connection" class="connection">
   <line id="svg_51" y1="172.76" x2="482.75" class="voltage-7_2kV" x1="430.5" y2="172.76"/>
   <line id="svg_52" y1="172.76" x2="535" class="voltage-7_2kV" x1="482.75" y2="172.76"/>
  </g>
  <g id="svg_53" tgs:schematic-type="connection" class="connection">
   <line id="svg_54" y1="106.06001" x2="589.75" class="voltage-7_2kV" x1="644.5" y2="106.06001"/>
   <line id="svg_55" y1="106.06001" x2="535" class="voltage-7_2kV" x1="589.75" y2="106.06001"/>
  </g>
  <g id="svg_56" tgs:schematic-type="connection" class="connection">
   <line id="svg_57" y1="305.06" x2="589.75" class="voltage-7_2kV" x1="644.5" y2="305.06"/>
   <line id="svg_58" y1="305.06" x2="535" class="voltage-7_2kV" x1="589.75" y2="305.06"/>
  </g>
  <g id="svg_59" tgs:schematic-type="connection" class="connection">
   <line id="svg_60" y1="106.06001" x2="725" class="voltage-7_2kV" x1="680.5" y2="106.06001"/>
   <line id="svg_61" y1="106.06001" x2="725" class="voltage-7_2kV" x1="725" y2="106"/>
   <line id="svg_62" y1="106" x2="769.5" class="voltage-7_2kV" x1="725" y2="106"/>
  </g>
  <g id="svg_63" tgs:schematic-type="connection" class="connection">
   <line id="svg_64" y1="305.06" x2="756.25" class="voltage-7_2kV" x1="680.5" y2="305.06"/>
   <line id="svg_65" y1="305.06" x2="756.25" class="voltage-7_2kV" x1="756.25" y2="305"/>
   <line id="svg_66" y1="305" x2="832" class="voltage-7_2kV" x1="756.25" y2="305"/>
  </g>
  <g id="svg_67" tgs:schematic-type="connection" class="connection">
   <line id="svg_68" y1="106" x2="850" class="voltage-7_2kV" x1="805.5" y2="106"/>
   <line id="svg_69" y1="106" x2="894.5" class="voltage-7_2kV" x1="850" y2="106"/>
  </g>
  <g id="svg_70" tgs:schematic-type="connection" class="connection">
   <line id="svg_71" y1="106" x2="975" class="voltage-7_2kV" x1="930.5" y2="106"/>
   <line id="svg_72" y1="106" x2="1019.5" class="voltage-7_2kV" x1="975" y2="106"/>
  </g>
  <g id="svg_73" tgs:schematic-type="connection" class="connection">
   <line id="svg_74" y1="305" x2="912.5" class="voltage-7_2kV" x1="868" y2="305"/>
   <line id="svg_75" y1="305" x2="957" class="voltage-7_2kV" x1="912.5" y2="305"/>
  </g>
  <g id="svg_76" tgs:schematic-type="connection" class="connection">
   <line id="svg_77" y1="106" x2="1134.275" class="voltage-7_2kV" x1="1114.375" y2="106"/>
   <line id="svg_78" y1="106" x2="1134.275" class="voltage-7_2kV" x1="1134.275" y2="304.99999"/>
   <line id="svg_79" y1="304.99999" x2="990.00001" class="voltage-7_2kV" x1="1134.275" y2="304.99999"/>
  </g>
  <g id="svg_80" tgs:schematic-type="connection" class="connection">
   <line id="svg_81" y1="173" x2="227" class="voltage-277V" x1="245.5" y2="173"/>
   <line id="svg_82" y1="173" x2="208.5" class="voltage-277V" x1="227" y2="173"/>
  </g>
  <g id="svg_2">
   <svg y="350" x="1150" class="symbol" tgs:schematic-type="equipment-symbol" preserveAspectRatio="xMidYMid meet" id="svg_1" tgs:symbol-type="nullequipment">
    <g id="svg_3"/>
   </svg>
  </g>
  <g id="svg_4">
   <svg preserveAspectRatio="xMaxYMax" class="symbol" tgs:schematic-type="equipment-symbol" id="svg_5" x="245" y="145.5" tgs:symbol-type="transformer">
    <g tgs:state="default" id="svg_6">
     <g tgs:voltageGroup="high" class="voltage-277V" stroke-width="2px" fill="none" id="svg_21">
      <path d="m1,0.5a5,5 0 0 1 -1,13.5" id="svg_83"/>
      <path d="m1,14a5,5 0 0 1 -1,13.5" id="svg_27"/>
      <path d="m1,27.5a5,5 0 0 1 -1,13.5" id="svg_25"/>
      <path d="m1,41a5,5 0 0 1 -1,13.5" id="svg_23"/>
      <path d="m14,0.5l0,54" id="svg_22"/>
     </g>
     <g tgs:voltageGroup="low" class="voltage-7_2kV" stroke-width="2px" fill="none" id="svg_12">
      <path d="m22,0.5l0,54" id="svg_20"/>
      <path d="m35,0.5a5,5 0 0 0 -1,13.5" id="svg_18"/>
      <path d="m35,14a5,5 0 0 0 -1,13.5" id="svg_16"/>
      <path d="m35,27.5a5,5 0 0 0 -1,13.5" id="svg_15"/>
      <path d="m35,41a5,5 0 0 0 -1,13.5" id="svg_14"/>
     </g>
    </g>
   </svg>
  </g>
  <g id="svg_7">
   <svg y="152" x="394.5" class="symbol" tgs:schematic-type="equipment-symbol" preserveAspectRatio="xMidYMid meet" id="svg_84" tgs:symbol-type="symbolextension">
    <g id="svg_85">
     <path stroke-width="2" stroke="#ffffff" id="svg_88" d="m2.43613,15.80768c7.23092,-10.61537 27.23132,-7.53862 30.616059,0.30757" stroke-dasharray="null" stroke-linejoin="null" fill="none" stroke-linecap="null"/>
     <circle id="svg_87" cy="20" r="0" cx="0"/>
     <circle id="svg_86" cy="20" r="0" cx="30"/>
    </g>
   </svg>
  </g>
  <g id="svg_11">
   <svg y="83.3" x="644.5" class="symbol" tgs:schematic-type="equipment-symbol" preserveAspectRatio="xMidYMid meet" id="svg_89" tgs:symbol-type="symbolextension">
    <g id="svg_90">
     <line id="svg_93" y1="20" x2="30" x1="0" y2="10"/>
     <circle id="svg_92" cy="20" r="0" cx="0"/>
     <circle id="svg_91" cy="20" r="0" cx="30"/>
    </g>
   </svg>
  </g>
  <g id="svg_13">
   <svg y="282.3" x="644.5" class="symbol" tgs:schematic-type="equipment-symbol" preserveAspectRatio="xMidYMid meet" id="svg_94" tgs:symbol-type="symbolextension">
    <g id="svg_95">
     <line id="svg_98" y1="20" x2="30" x1="0" y2="10"/>
     <circle id="svg_97" cy="20" r="0" cx="0"/>
     <circle id="svg_96" cy="20" r="0" cx="30"/>
    </g>
   </svg>
  </g>
  <g id="svg_17">
   <svg y="76" x="882.5" class="symbol" tgs:schematic-type="equipment-symbol" preserveAspectRatio="xMidYMid meet" id="svg_99" tgs:symbol-type="terminationcabinettype1">
    <g id="svg_100">
     <rect id="svg_104" height="30" y="20" width="60" x="0" fill="none"/>
     <circle id="svg_103" cy="30" r="0" cx="20"/>
     <circle id="svg_102" cy="30" r="0" cx="50"/>
     <line id="svg_101" stroke-dasharray=" 4px, 4px" y1="30" x2="40" x1="20" y2="30"/>
    </g>
   </svg>
  </g>
  <g id="svg_19">
   <svg y="76" x="1007.5" class="symbol" tgs:schematic-type="equipment-symbol" preserveAspectRatio="xMidYMid meet" id="svg_105" tgs:symbol-type="terminationcabinettype1">
    <g id="svg_106">
     <rect id="svg_110" height="30" y="20" width="60" x="0" fill="none"/>
     <circle id="svg_109" cy="30" r="0" cx="20"/>
     <circle id="svg_108" cy="30" r="0" cx="50"/>
     <line id="svg_107" stroke-dasharray=" 4px, 4px" y1="30" x2="40" x1="20" y2="30"/>
    </g>
   </svg>
  </g>
  <g id="svg_24">
   <svg y="275" x="820" class="symbol" tgs:schematic-type="equipment-symbol" preserveAspectRatio="xMidYMid meet" id="svg_111" tgs:symbol-type="terminationcabinettype1">
    <g id="svg_112">
     <rect id="svg_116" height="30" y="20" width="60" x="0" fill="none"/>
     <circle id="svg_115" cy="30" r="0" cx="20"/>
     <circle id="svg_114" cy="30" r="0" cx="50"/>
     <line id="svg_113" stroke-dasharray=" 4px, 4px" y1="30" x2="40" x1="20" y2="30"/>
    </g>
   </svg>
  </g>
  <g id="svg_26">
   <svg y="275" x="945" class="symbol" tgs:schematic-type="equipment-symbol" preserveAspectRatio="xMidYMid meet" id="svg_117" tgs:symbol-type="terminationcabinettype1">
    <g id="svg_118">
     <rect id="svg_122" height="30" y="20" width="60" x="0" fill="none"/>
     <circle id="svg_121" cy="30" r="0" cx="20"/>
     <circle id="svg_120" cy="30" r="0" cx="50"/>
     <line id="svg_119" stroke-dasharray=" 4px, 4px" y1="30" x2="40" x1="20" y2="30"/>
    </g>
   </svg>
  </g>
  <g id="svg_28">
   <svg y="164.5" x="191.5" class="symbol" tgs:schematic-type="equipment-symbol" preserveAspectRatio="xMidYMid meet" id="svg_123" tgs:symbol-type="destinationarrow">
    <g id="svg_124" transform="rotate(180 8.5 8.5)">
     <path id="svg_125" fill="white" d="m0,0l0,15l15,-7.5l-15,-7.5"/>
    </g>
   </svg>
  </g>
  <g id="svg_137" tgs:schematic-type="pointgroup" name="MV.Line.MWh">
   <g tgs:point-name="MV.Line.MWh" tgs:schematic-type="point" id="MV.Line.MWh" name="MV.Line.kWh">
    <use id="svg_138" x="294.5" y="101" xlink:href="#quality_questionable" class="quality-display"/>
    <text id="svg_139" y="115" x="314.5" class="data-label">xxxxxx uu</text>
   </g>
   <g tgs:point-name="MV.Line.kVar_tot" tgs:schematic-type="point" id="MV.Line.kVar_tot" name="MV.Line.kVar_tot">
    <use id="svg_140" x="294.5" y="121" xlink:href="#quality_questionable" class="quality-display"/>
    <text id="svg_141" y="135" x="314.5" class="data-label">xxxxxx uu</text>
   </g>
   <g tgs:point-name="MV.Line.kW_tot" tgs:schematic-type="point" id="MV.Line.kW_tot" name="MV.Line.kW_tot">
    <use id="svg_142" x="294.5" y="141" xlink:href="#quality_questionable" class="quality-display"/>
    <text id="svg_143" y="155" x="314.5" class="data-label">xxxxxx uu</text>
   </g>
  </g>
  <g id="svg_144" tgs:schematic-type="pointgroup" name="MV.Line.Frequency">
   <g tgs:point-name="MV.Line.Frequency" tgs:schematic-type="point" id="MV.Line.Frequency" name="MV.Line.Frequency">
    <use id="svg_145" x="444.5" y="206" xlink:href="#quality_questionable" class="quality-display"/>
    <text id="svg_146" y="220" x="464.5" class="data-label">xxxxxx uu</text>
   </g>
   <g tgs:point-name="MV.Line.kV_a" tgs:schematic-type="point" id="MV.Line.kV_a" name="MV.Line.kV_a">
    <use id="svg_147" x="444.5" y="226" xlink:href="#quality_questionable" class="quality-display"/>
    <text id="svg_148" y="240" x="464.5" class="data-label">xxxxxx uu</text>
   </g>
  </g>
  <g id="svg_149" tgs:schematic-type="pointgroup" name="MV.TCE.kWh">
   <g tgs:point-name="MV.TCE.kWh" tgs:schematic-type="point" id="MV.TCE.kWh" name="MV.TCE.kWh">
    <use id="svg_150" x="740.5" y="13" xlink:href="#quality_questionable" class="quality-display"/>
    <text id="svg_151" y="27" x="760.5" class="data-label">xxxxxx uu</text>
   </g>
   <g tgs:point-name="MV.TCE.kVar_tot" tgs:schematic-type="point" id="MV.TCE.kVar_tot" name="MV.TCE.kVar_tot">
    <use id="svg_152" x="740.5" y="33" xlink:href="#quality_questionable" class="quality-display"/>
    <text id="svg_153" y="47" x="760.5" class="data-label">xxxxxx uu</text>
   </g>
   <g tgs:point-name="MV.TCE.kW_tot" tgs:schematic-type="point" id="MV.TCE.kW_tot" name="MV.TCE.kW_tot">
    <use id="svg_154" x="740.5" y="53" xlink:href="#quality_questionable" class="quality-display"/>
    <text id="svg_155" y="67" x="760.5" class="data-label">xxxxxx uu</text>
   </g>
  </g>
  <g id="svg_156" tgs:schematic-type="pointgroup" name="MV.TCD.kWh">
   <g tgs:point-name="MV.TCD.kWh" tgs:schematic-type="point" id="MV.TCD.kWh" name="MV.TCD.kWh">
    <use id="svg_157" x="867.5" y="13" xlink:href="#quality_questionable" class="quality-display"/>
    <text id="svg_158" y="27" x="887.5" class="data-label">xxxxxx uu</text>
   </g>
   <g tgs:point-name="MV.TCD.kVar_tot" tgs:schematic-type="point" id="MV.TCD.kVar_tot" name="MV.TCD.kVar_tot">
    <use id="svg_159" x="867.5" y="33" xlink:href="#quality_questionable" class="quality-display"/>
    <text id="svg_160" y="47" x="887.5" class="data-label">xxxxxx uu</text>
   </g>
   <g tgs:point-name="MV.TCD.kW_tot" tgs:schematic-type="point" id="MV.TCD.kW_tot" name="MV.TCD.kW_tot">
    <use id="svg_161" x="867.5" y="53" xlink:href="#quality_questionable" class="quality-display"/>
    <text id="svg_162" y="67" x="887.5" class="data-label">xxxxxx uu</text>
   </g>
  </g>
  <g id="svg_163" tgs:schematic-type="pointgroup" name="MV.TCC.kWh">
   <g tgs:point-name="MV.TCC.kWh" tgs:schematic-type="point" id="MV.TCC.kWh" name="MV.TCC.kWh">
    <use id="svg_164" x="992.5" y="13" xlink:href="#quality_questionable" class="quality-display"/>
    <text id="svg_165" y="27" x="1012.5" class="data-label">xxxxxx uu</text>
   </g>
   <g tgs:point-name="MV.TCC.kVar_tot" tgs:schematic-type="point" id="MV.TCC.kVar_tot" name="MV.TCC.kVar_tot">
    <use id="svg_166" x="992.5" y="33" xlink:href="#quality_questionable" class="quality-display"/>
    <text id="svg_167" y="47" x="1012.5" class="data-label">xxxxxx uu</text>
   </g>
   <g tgs:point-name="MV.TCC.kW_tot" tgs:schematic-type="point" id="MV.TCC.kW_tot" name="MV.TCC.kW_tot">
    <use id="svg_168" x="992.5" y="53" xlink:href="#quality_questionable" class="quality-display"/>
    <text id="svg_169" y="67" x="1012.5" class="data-label">xxxxxx uu</text>
   </g>
  </g>
  <g id="svg_170" tgs:schematic-type="pointgroup" name="MV.TCB.kWh">
   <g tgs:point-name="MV.TCB.kWh" tgs:schematic-type="point" id="MV.TCB.kWh" name="MV.TCB.kWh">
    <use id="svg_171" x="930" y="359" xlink:href="#quality_questionable" class="quality-display"/>
    <text id="svg_172" y="373" x="950" class="data-label">xxxxxx uu</text>
   </g>
   <g tgs:point-name="MV.TCB.kVar_tot" tgs:schematic-type="point" id="MV.TCB.kVar_tot" name="MV.TCB.kVar_tot">
    <use id="svg_173" x="930" y="379" xlink:href="#quality_questionable" class="quality-display"/>
    <text id="svg_174" y="393" x="950" class="data-label">xxxxxx uu</text>
   </g>
   <g tgs:point-name="MV.TCB.kW_tot" tgs:schematic-type="point" id="MV.TCB.kW_tot" name="MV.TCB.kW_tot">
    <use id="svg_175" x="930" y="399" xlink:href="#quality_questionable" class="quality-display"/>
    <text id="svg_176" y="413" x="950" class="data-label">xxxxxx uu</text>
   </g>
  </g>
  <g id="svg_177" tgs:schematic-type="pointgroup" name="MV.TCA.kWh">
   <g tgs:point-name="MV.TCA.kWh" tgs:schematic-type="point" id="MV.TCA.kWh" name="MV.TCA.kWh">
    <use id="svg_178" x="805" y="359" xlink:href="#quality_questionable" class="quality-display"/>
    <text id="svg_179" y="373" x="825" class="data-label">xxxxxx uu</text>
   </g>
   <g tgs:point-name="MV.TCA.kVar_tot" tgs:schematic-type="point" id="MV.TCA.kVar_tot" name="MV.TCA.kVar_tot">
    <use id="svg_180" x="805" y="379" xlink:href="#quality_questionable" class="quality-display"/>
    <text id="svg_181" y="393" x="825" class="data-label">xxxxxx uu</text>
   </g>
   <g tgs:point-name="MV.TCA.kW_tot" tgs:schematic-type="point" id="MV.TCA.kW_tot" name="MV.TCA.kW_tot">
    <use id="svg_182" x="805" y="399" xlink:href="#quality_questionable" class="quality-display"/>
    <text id="svg_183" y="413" x="825" class="data-label">xxxxxx uu</text>
   </g>
  </g>
  <line stroke-width="3" id="svg_184" y2="346" x2="534" y1="94" x1="534" stroke="#ffff00" fill="none"/>
  <line id="svg_185" y2="106" x2="1054" y1="106" x1="1115" stroke-linecap="null" stroke-linejoin="null" stroke-dasharray="null" stroke="#ffff00" fill="none"/>
  <line id="svg_188" y2="106" x2="1089" y1="106" x1="1090" stroke-linecap="null" stroke-linejoin="null" stroke-dasharray="null" stroke="#ffff00" fill="none"/>
  <line class="voltage-7_2kV" id="svg_189" y2="193" x2="756" y1="138" x1="756" stroke-linecap="null" stroke-linejoin="null" stroke-dasharray="null" fill="none" stroke="#ffff00"/>
  <line stroke="#ffff00" class="voltage-7_2kV" id="svg_197" y2="195" x2="1022" y1="195" x1="970" stroke-linecap="null" stroke-linejoin="null" stroke-dasharray="null" stroke-width="null" fill="none"/>
  <path transform="rotate(180 1022.58 254.508)" id="svg_207" d="m1013.639648,262.67041l8.939941,-16.325134l8.939941,16.325134l-17.879883,0z" stroke-linecap="null" stroke-linejoin="null" stroke-dasharray="null" stroke-width="null" stroke="#ffff00" fill="none"/>
  <line class="voltage-7_2kV" stroke="#ffff00" id="svg_264" y2="246" x2="1022" y1="195" x1="1022" stroke-linecap="null" stroke-linejoin="null" stroke-dasharray="null" stroke-width="null" fill="none"/>
  <text id="svg_265" fill="undefined" text-anchor="middle" class="symbol-label" y="216" x="787">FID</text>
  <text id="svg_266" fill="undefined" text-anchor="middle" class="symbol-label" y="226" x="956">SST</text>
  <rect stroke="#ffffff" stroke-width="2" id="svg_215" height="30" width="60" y="96" x="758" fill="none"/>
  <line fill="none" x1="820" y1="138" x2="820" y2="193" id="svg_301" class="voltage-7_2kV" stroke="#ffffff"/>
  <line fill="none" stroke="#ffffff" stroke-width="null" stroke-dasharray="null" stroke-linejoin="null" stroke-linecap="null" x1="756" y1="138" x2="769" y2="138" id="svg_302" class="voltage-7_2kV"/>
  <line fill="none" stroke="#ffffff" stroke-width="null" stroke-dasharray="null" stroke-linejoin="null" stroke-linecap="null" x1="769" y1="106" x2="769" y2="138" id="svg_303" class="voltage-7_2kV"/>
  <line fill="none" stroke="#ffffff" stroke-width="null" stroke-dasharray="null" stroke-linejoin="null" stroke-linecap="null" x1="806" y1="106" x2="806" y2="138" class="voltage-7_2kV" id="svg_304"/>
  <line fill="none" stroke="#ffffff" stroke-width="null" stroke-dasharray="null" stroke-linejoin="null" stroke-linecap="null" x1="806" y1="138" x2="820" y2="138" id="svg_305" class="voltage-7_2kV"/>
  <line fill="none" stroke="#ffffff" stroke-width="null" stroke-dasharray="null" stroke-linejoin="null" stroke-linecap="null" x1="894" y1="106" x2="894" y2="195" id="svg_307" class="voltage-7_2kV"/>
  <line stroke="#ffff00" class="voltage-7_2kV" y2="195" x2="939" y1="195" x1="894" stroke-linecap="null" stroke-linejoin="null" stroke-dasharray="null" stroke-width="null" fill="none" id="svg_308"/>
  <g tgs:point-name="MV.TCE.kV_a" tgs:schematic-type="point" class="point" id="svg_208">
   <use x="740.5" y="-9" class="quality-display" xlink:href="#quality_questionable" id="svg_206"/>
   <text class="data-label" xml:space="preserve" id="svg_205" y="5" x="760.5">xxxxxx uu</text>
  </g>
  <g tgs:point-name="MV.TCD.kV_a" tgs:schematic-type="point" class="point" id="svg_211">
   <use x="867.5" y="-9" class="quality-display" xlink:href="#quality_questionable" id="svg_210"/>
   <text class="data-label" xml:space="preserve" id="svg_209" y="5" x="887.5">xxxxxx uu</text>
  </g>
  <g tgs:point-name="MV.TCC.kV_a" tgs:schematic-type="point" class="point" id="svg_214">
   <use x="992.5" y="-9" class="quality-display" xlink:href="#quality_questionable" id="svg_213"/>
   <text class="data-label" xml:space="preserve" id="svg_212" y="5" x="1012.5">xxxxxx uu</text>
  </g>
  <g tgs:point-name="MV.TCA.kV_a" tgs:schematic-type="point" class="point" id="svg_218">
   <use x="805" y="338" class="quality-display" xlink:href="#quality_questionable" id="svg_217"/>
   <text class="data-label" xml:space="preserve" id="svg_216" y="352" x="825">xxxxxx uu</text>
  </g>
  <g tgs:point-name="MV.TCB.kV_a" tgs:schematic-type="point" class="point" id="svg_221">
   <use x="930" y="338" class="quality-display" xlink:href="#quality_questionable" id="svg_220"/>
   <text class="data-label" xml:space="preserve" id="svg_219" y="352" x="950">xxxxxx uu</text>
  </g>
  <g id="svg_347" transform="matrix(1.48148 0 0 1.48148 -438.963 -97.3333)">
   <svg id="svg_126" tgs:symbol-type="SST" tgs:schematic-type="equipment-symbol" class="symbol" preserveAspectRatio="xMaxYMax" x="911.6" y="178" xmlns:tgs="http://www.totalgrid.org">
    <!-- Created with SVG-edit - http://svg-edit.googlecode.com/ -->
    <g id="svg_127">
     <rect id="svg_131" height="20" width="20" y="10" x="20" stroke-linecap="null" stroke-linejoin="null" stroke-dasharray="null" fill="none" stroke="#FFFFFF"/>
     <line id="svg_130" y2="10" x2="40" y1="30" x1="20" stroke-linecap="null" stroke-linejoin="null" stroke-dasharray="null" fill="none" stroke="#FFFFFF"/>
     <path id="svg_129" d="m22.0625,14.21875c1.25,-1.875 3.75,-1.875 5,0c1.25,1.875 3.75,1.875 5,0" stroke-linecap="null" stroke-linejoin="null" stroke-dasharray="null" fill="none" stroke="#FFFFFF"/>
     <path d="m27.8125,26.15625c1.25,-1.875 3.75,-1.875 5,0c1.25,1.875 3.75,1.875 5,0" stroke-linecap="null" stroke-linejoin="null" stroke-dasharray="null" fill="none" id="svg_128" stroke="#FFFFFF"/>
    </g>
   </svg>
  </g>
 </g>
 <g display="inline">
  <title>navigation</title>
  <rect fill="#aaffaa" stroke-width="null" stroke-dasharray="null" stroke-linejoin="null" stroke-linecap="null" x="922" y="164" width="71" height="71" id="svg_300" tgs:schematic-type="navigation-area" class="navigation-area clickable" tgs:uri="ModelNodeDetailPlace:?model_node_name=Gen1_SST;tab=schematic"/>
  <rect tgs:uri="ModelNodeDetailPlace:?model_node_name=Gen1_FID;tab=schematic" class="navigation-area clickable" tgs:schematic-type="navigation-area" id="svg_132" height="70" width="50" y="150" x="760" stroke-linecap="null" stroke-linejoin="null" stroke-dasharray="null" stroke-width="null" fill="#aaffaa"/>
 </g>
</svg>